<svg width="177" height="17" viewBox="0 0 177 17" fill="none" xmlns="http://www.w3.org/2000/svg">
<path d="M69.29 16.9951L66.74 12.9351L58.36 0.00512314H53.7L45.32 12.9351L36.94 0.00512314H32.28L43.3 16.9951H47.34L55.7 4.09512L56.74 2.42512L56.79 4.75512L64.73 16.9951H69.29Z" fill="#261D2C"/>
<path d="M64.73 16.9951L67.28 12.9351L75.66 0.00512314H80.32L69.29 16.9951H64.73Z" fill="#261D2C"/>
<path d="M15.05 0.00512314L26.08 16.9951H21.42L13.97 5.50512L13.93 2.36512L10.72 7.63512L4.66 16.9951H0L11.02 0.00512314H15.05Z" fill="#261D2C"/>
<path d="M101.74 0.00512314L112.76 16.9951H108.11L100.66 5.50512L100.62 2.36512L97.4099 7.63512L91.3399 16.9951H86.6799L97.7099 0.00512314H101.74Z" fill="#261D2C"/>
<path d="M101.74 0.00512314L112.76 16.9951H108.11L100.66 5.50512L100.62 2.36512L97.4099 7.63512L91.3399 16.9951H86.6799L97.7099 0.00512314H101.74Z" fill="#261D2C"/>
<path d="M164.99 0.00512314L176.01 16.9951H171.36L163.91 5.50512L163.87 2.36512L160.66 7.63512L154.59 16.9951H149.94L160.96 0.00512314H164.99Z" fill="#261D2C"/>
<path d="M164.99 0.00512314L176.01 16.9951H171.36L163.91 5.50512L163.87 2.36512L160.66 7.63512L154.59 16.9951H149.94L160.96 0.00512314H164.99Z" fill="#261D2C"/>
<path d="M121 15.1151V0.00510874H134.88C135.855 -0.00246876 136.823 0.177462 137.73 0.535109C138.59 0.91693 139.363 1.47177 140 2.16511C140.658 2.86038 141.171 3.67961 141.51 4.57511C141.863 5.50817 142.042 6.49766 142.04 7.49511V11.4951C141.996 12.2244 141.809 12.9379 141.49 13.5951C141.173 14.2591 140.724 14.8513 140.17 15.3351C139.568 15.8625 138.868 16.2668 138.11 16.5251C137.299 16.8208 136.444 16.9796 135.58 16.9951H135.19H121V15.1151ZM125 5.43511V13.3051C128.33 13.3051 132 13.0951 135.27 13.2251H135.51C135.948 13.2205 136.383 13.1497 136.8 13.0151C137.132 12.9117 137.441 12.7453 137.71 12.5251C137.89 12.3659 138.036 12.1721 138.14 11.9551C138.24 11.7409 138.301 11.5106 138.32 11.2751V7.49511C138.308 6.96332 138.2 6.43812 138 5.94511C137.845 5.49484 137.596 5.0825 137.27 4.73511C136.985 4.42262 136.638 4.17385 136.25 4.00511C135.801 3.84223 135.327 3.76095 134.85 3.76511H123L125 5.23511V5.43511Z" fill="#261D2C"/>
</svg>
